# xmcd
#
# Track frame offsets: 
#        150
#        15613
#        29913
#        46115
#        62182
#        78388
#        97399
#        111525
#        128232
#        145531
#        163691
#        182658
#        201067
#        215102
#        234939
#        250856
#        269087
#        283913
#        301007
#        321114
#        336971
#
# Disc length: 4703 seconds
#
# Revision: 0
# Processed by: cddbd v1.5.2PL0 Copyright (c) Steve Scherf et al.
# Submitted via: ExactAudioCopy v0.95b4
#
DISCID=42125d15
DTITLE=Various Artist - Estrogen Blues 2007 D3
DYEAR=2007
DGENRE=Other
TTITLE0=Goldfrapp - Satin Chic
TTITLE1=Morningwood - Everybody Rules
TTITLE2=The Blow - Parentheses
TTITLE3=Robinella - Break It Down Baby
TTITLE4=The Starlings - Bones To Ashes
TTITLE5=The Dresden Dolls - Backstabber
TTITLE6=Melody Gardot - Goodnite
TTITLE7=Sandra McCracken - Long Way Home
TTITLE8=Sarah Fimm - Paradise
TTITLE9=Brun Ane - Song No. 6
TTITLE10=Madeleine Peyroux - Blue Alert
TTITLE11=Beth Orton - Precious Maybe
TTITLE12=Alexa Ray Joel - Don't Let It Bring You Down
TTITLE13=Garrison Starr - Gasoline
TTITLE14=The Lost Trailers - Down In The Valley
TTITLE15=Beth Thornley - Birmingham
TTITLE16=Christina Aguilera - Save Me From Myself
TTITLE17=Rachael Yamagata - Jesus Was A Crossmaker
TTITLE18=Shri - Day By Day
TTITLE19=Natasha Bedingfield - If You're Gonna
TTITLE20=Jenny Owens Young - WTF Was I Thinking
EXTD=
EXTT0=
EXTT1=
EXTT2=
EXTT3=
EXTT4=
EXTT5=
EXTT6=
EXTT7=
EXTT8=
EXTT9=
EXTT10=
EXTT11=
EXTT12=
EXTT13=
EXTT14=
EXTT15=
EXTT16=
EXTT17=
EXTT18=
EXTT19=
EXTT20=
PLAYORDER=
